<svg width="13" height="13" viewBox="0 0 13 13" fill="none" xmlns="http://www.w3.org/2000/svg">
<path d="M11.8595 5.88009H8.12009V1.86041C8.12009 1.29705 7.56373 0.840088 7.00009 0.840088C6.43645 0.840088 5.88009 1.29705 5.88009 1.86041V5.88009H1.86041C1.29705 5.88009 0.840088 6.43645 0.840088 7.00009C0.840088 7.56373 1.29705 8.12009 1.86041 8.12009H5.88009V11.8595C5.88009 12.4234 6.43645 12.8801 7.00009 12.8801C7.56373 12.8801 8.12009 12.4234 8.12009 11.8595V8.12009H11.8595C12.4234 8.12009 12.8801 7.56373 12.8801 7.00009C12.8801 6.43645 12.4234 5.88009 11.8595 5.88009Z" fill="#00296B"/>
</svg>
