<svg width="363" height="365" viewBox="0 0 363 365" fill="none" xmlns="http://www.w3.org/2000/svg">
<g clip-path="url(#clip0)" filter="url(#filter0_dd)">
<path d="M237.404 242.938V203.562C237.404 203.562 237.404 202.284 237.404 201.433L213.565 145.242C212.365 141.871 210.641 138.71 208.457 135.876C206.151 132.947 202.789 131.036 199.092 130.555L203.136 121.616C204.087 118.175 205.754 114.974 208.028 112.223C210.302 109.472 213.132 107.233 216.332 105.652L267.416 73.2995C268.392 72.3915 269.022 71.1723 269.198 69.8509C269.374 68.5294 269.085 67.1879 268.38 66.056C267.676 64.9241 266.6 64.0723 265.337 63.6464C264.074 63.2205 262.702 63.247 261.456 63.7215L210.586 95.2227C201.83 99.9307 195.261 107.875 192.281 117.359L188.024 130.342H143.965L151.202 109.058C154.524 98.8276 161.596 90.2346 170.996 85.0061L272.737 42.4368C272.737 42.4368 272.737 42.4368 272.737 43.7139L319.776 173.763L270.821 238.894C270.136 239.327 269.544 239.891 269.077 240.553C268.61 241.216 268.278 241.964 268.1 242.754C267.741 244.351 268.031 246.025 268.906 247.408C269.781 248.791 271.169 249.77 272.766 250.129C274.362 250.488 276.036 250.198 277.419 249.323H311.262C316.433 249.323 321.553 248.305 326.331 246.326C331.108 244.347 335.449 241.447 339.105 237.79C342.762 234.134 345.662 229.793 347.641 225.016C349.62 220.238 350.639 215.118 350.639 209.947V198.666C350.383 197.358 349.681 196.179 348.652 195.331C347.623 194.483 346.331 194.02 344.998 194.02C343.665 194.02 342.373 194.483 341.344 195.331C340.315 196.179 339.613 197.358 339.358 198.666V209.947C339.386 213.644 338.679 217.311 337.277 220.732C335.875 224.154 333.806 227.262 331.192 229.877C328.577 232.491 325.469 234.56 322.047 235.962C318.626 237.364 314.959 238.071 311.262 238.043H288.062L330.631 181.851H344.679C345.504 181.867 346.323 181.697 347.075 181.355C347.826 181.013 348.492 180.507 349.022 179.874C349.553 179.242 349.935 178.498 350.141 177.699C350.347 176.899 350.372 176.063 350.213 175.253L322.969 31.3688C321.634 25.1533 317.933 19.701 312.65 16.1655C307.366 12.63 300.915 11.2887 294.66 12.4255C289.659 13.0959 284.968 15.2327 281.18 18.5662C277.392 21.8997 274.676 26.2806 273.375 31.156L166.952 73.7252C160.599 77.0599 154.986 81.6449 150.45 87.2048C145.914 92.7646 142.55 99.1843 140.559 106.078L131.832 130.342H130.343C120.126 130.342 115.443 138.431 113.528 146.306L103.311 186.747H28.8149C24.3724 186.802 20.1275 188.591 16.986 191.733C13.8445 194.874 12.0552 199.119 12 203.562V243.151C12.0552 247.593 13.8445 251.838 16.986 254.98C20.1275 258.121 24.3724 259.911 28.8149 259.966H45.8426V271.672C36.0274 273.126 27.1229 278.232 20.9101 285.968C14.6973 293.705 11.6342 303.501 12.3335 313.399C13.0328 323.297 17.4429 332.565 24.6818 339.351C31.9206 346.137 41.4545 349.94 51.3766 350H225.911C236.354 350 246.369 345.851 253.754 338.467C261.139 331.082 265.287 321.067 265.287 310.623C265.287 300.18 261.139 290.164 253.754 282.78C246.369 275.395 236.354 271.247 225.911 271.247H220.377V259.966C224.893 259.966 229.224 258.172 232.417 254.978C235.61 251.785 237.404 247.454 237.404 242.938V242.938ZM311.9 33.4973L337.442 169.932H331.27L284.656 40.734C284.117 38.8517 283.997 36.8741 284.304 34.9403C284.611 33.0065 285.338 31.1634 286.433 29.5405C287.529 27.9176 288.966 26.5543 290.645 25.5464C292.323 24.5384 294.203 23.9104 296.15 23.7063C299.535 22.9387 303.087 23.5358 306.035 25.3685C308.983 27.2012 311.091 30.1217 311.9 33.4973V33.4973ZM299.13 34.7743C298.045 34.8161 296.997 35.1758 296.115 35.8087C295.234 36.4416 294.558 37.3197 294.171 38.3339C293.785 39.3481 293.705 40.4535 293.942 41.5126C294.179 42.5717 294.722 43.5377 295.504 44.2905C296.286 45.0433 297.272 45.5496 298.339 45.7465C299.406 45.9433 300.508 45.822 301.507 45.3976C302.505 44.9732 303.357 44.2645 303.957 43.3596C304.556 42.4547 304.876 41.3936 304.877 40.3083C304.882 39.5246 304.721 38.7487 304.403 38.032C304.086 37.3153 303.62 36.6741 303.037 36.1509C302.453 35.6277 301.765 35.2345 301.018 34.9972C300.271 34.7598 299.483 34.6839 298.704 34.7743H299.13ZM220.377 249.323H28.8149C28.0801 249.353 27.3471 249.231 26.6621 248.963C25.9771 248.696 25.3549 248.289 24.8349 247.769C24.315 247.249 23.9084 246.627 23.6409 245.942C23.3734 245.257 23.2508 244.524 23.2809 243.789V203.562C23.2508 202.827 23.3734 202.094 23.6409 201.409C23.9084 200.724 24.315 200.102 24.8349 199.582C25.3549 199.062 25.9771 198.655 26.6621 198.388C27.3471 198.12 28.0801 197.997 28.8149 198.027H107.142C108.404 198.024 109.63 197.605 110.63 196.836C111.63 196.066 112.349 194.989 112.676 193.771L123.957 148.221C123.957 143.965 126.511 141.623 129.704 141.623H197.815C199.305 141.623 199.518 141.623 200.582 143.113C201.945 145.112 203.087 147.253 203.987 149.499L225.272 204.626V243.151C225.361 243.878 225.304 244.616 225.106 245.322C224.907 246.027 224.57 246.686 224.115 247.261C223.659 247.835 223.094 248.313 222.453 248.667C221.811 249.021 221.105 249.244 220.377 249.323V249.323ZM141.623 153.543C140.362 153.546 139.136 153.965 138.136 154.734C137.136 155.504 136.417 156.581 136.089 157.8L127.15 191.429C126.925 192.262 126.892 193.135 127.051 193.984C127.21 194.832 127.558 195.633 128.069 196.328C128.58 197.023 129.241 197.594 130.003 197.999C130.765 198.404 131.609 198.632 132.471 198.666H158.438V215.481C158.247 216.537 158.247 217.618 158.438 218.674L169.719 235.488C170.221 236.274 170.914 236.92 171.732 237.367C172.551 237.813 173.469 238.046 174.402 238.043H209.096C210.584 238.044 212.014 237.467 213.086 236.435C214.158 235.403 214.787 233.996 214.843 232.509V209.308C214.68 208.349 214.236 207.46 213.565 206.754L192.281 156.31C191.819 155.332 191.099 154.498 190.199 153.898C189.299 153.299 188.253 152.955 187.173 152.904L141.623 153.543ZM145.88 164.823H158.438V187.385H139.921L145.88 164.823ZM169.719 164.185H183.98L203.562 210.373V226.123H178.446L169.719 213.14V164.185V164.185ZM40.0957 209.095C38.6087 209.151 37.2011 209.78 36.169 210.852C35.1369 211.924 34.5607 213.354 34.5617 214.842V231.87C34.3993 232.702 34.423 233.56 34.6313 234.382C34.8396 235.204 35.2272 235.97 35.7663 236.625C36.3055 237.279 36.9828 237.806 37.7497 238.168C38.5166 238.53 39.3541 238.718 40.2021 238.718C41.0501 238.718 41.8876 238.53 42.6546 238.168C43.4215 237.806 44.0988 237.279 44.6379 236.625C45.1771 235.97 45.5647 235.204 45.773 234.382C45.9812 233.56 46.005 232.702 45.8426 231.87V214.842C45.8426 213.318 45.2371 211.856 44.1594 210.779C43.0816 209.701 41.6199 209.095 40.0957 209.095V209.095ZM62.6574 209.095C61.1705 209.151 59.7628 209.78 58.7307 210.852C57.6986 211.924 57.1224 213.354 57.1234 214.842V231.87C56.961 232.702 56.9848 233.56 57.193 234.382C57.4013 235.204 57.7889 235.97 58.328 236.625C58.8672 237.279 59.5445 237.806 60.3114 238.168C61.0783 238.53 61.9158 238.718 62.7639 238.718C63.6119 238.718 64.4494 238.53 65.2163 238.168C65.9832 237.806 66.6605 237.279 67.1997 236.625C67.7388 235.97 68.1264 235.204 68.3347 234.382C68.543 233.56 68.5667 232.702 68.4043 231.87V214.842C68.4043 214.088 68.2556 213.34 67.9668 212.643C67.678 211.946 67.2547 211.312 66.7211 210.779C66.1874 210.245 65.5539 209.822 64.8567 209.533C64.1594 209.244 63.4121 209.095 62.6574 209.095V209.095ZM83.9421 209.095C82.4724 209.2 81.0936 209.845 80.0716 210.906C79.0496 211.968 78.457 213.37 78.4081 214.842V231.87C78.6634 233.179 79.3657 234.357 80.3947 235.205C81.4237 236.053 82.7154 236.516 84.0485 236.516C85.3816 236.516 86.6733 236.053 87.7022 235.205C88.7312 234.357 89.4335 233.179 89.6889 231.87V214.842C89.7966 213.592 89.476 212.342 88.7799 211.298C88.0837 210.254 87.0533 209.477 85.8577 209.095H83.9421ZM57.1234 259.966H209.096V270.608H181C180.168 270.446 179.31 270.469 178.488 270.678C177.666 270.886 176.9 271.274 176.245 271.813C175.591 272.352 175.064 273.029 174.702 273.796C174.34 274.563 174.152 275.401 174.152 276.249C174.152 277.097 174.34 277.934 174.702 278.701C175.064 279.468 175.591 280.145 176.245 280.684C176.9 281.223 177.666 281.611 178.488 281.819C179.31 282.028 180.168 282.051 181 281.889H225.911C229.6 281.889 233.254 282.616 236.662 284.028C240.071 285.44 243.168 287.509 245.777 290.118C248.386 292.727 250.456 295.824 251.868 299.233C253.28 302.642 254.006 306.295 254.006 309.985C254.006 313.674 253.28 317.328 251.868 320.736C250.456 324.145 248.386 327.242 245.777 329.851C243.168 332.46 240.071 334.53 236.662 335.942C233.254 337.354 229.6 338.08 225.911 338.08H51.3766C43.9251 338.08 36.7789 335.12 31.5099 329.851C26.2409 324.582 23.2809 317.436 23.2809 309.985C23.2809 302.533 26.2409 295.387 31.5099 290.118C36.7789 284.849 43.9251 281.889 51.3766 281.889H157.8C159.108 281.634 160.287 280.931 161.135 279.902C161.982 278.873 162.446 277.582 162.446 276.249C162.446 274.915 161.982 273.624 161.135 272.595C160.287 271.566 159.108 270.863 157.8 270.608H57.1234V259.966ZM62.6574 293.808C59.3318 293.808 56.0808 294.795 53.3156 296.642C50.5504 298.49 48.3952 301.116 47.1225 304.188C45.8498 307.261 45.5169 310.642 46.1657 313.904C46.8145 317.165 48.4159 320.162 50.7675 322.513C53.1191 324.865 56.1152 326.466 59.377 327.115C62.6388 327.764 66.0197 327.431 69.0922 326.158C72.1647 324.885 74.7908 322.73 76.6385 319.965C78.4861 317.2 79.4723 313.949 79.4723 310.623C79.4723 308.415 79.0374 306.229 78.1923 304.188C77.3473 302.148 76.1087 300.295 74.5473 298.733C72.9859 297.172 71.1323 295.933 69.0922 295.088C67.0521 294.243 64.8656 293.808 62.6574 293.808V293.808ZM113.315 293.808C109.999 293.85 106.769 294.872 104.032 296.745C101.295 298.618 99.1726 301.259 97.9325 304.335C96.6924 307.411 96.3897 310.785 97.0623 314.032C97.7349 317.28 99.353 320.256 101.713 322.586C104.073 324.917 107.069 326.497 110.325 327.129C113.581 327.761 116.951 327.415 120.011 326.137C123.071 324.858 125.684 322.703 127.523 319.943C129.361 317.182 130.342 313.94 130.343 310.623C130.343 308.397 129.901 306.193 129.043 304.139C128.184 302.085 126.927 300.222 125.343 298.657C123.759 297.093 121.88 295.859 119.815 295.027C117.75 294.194 115.541 293.78 113.315 293.808ZM163.972 293.808C160.656 293.85 157.426 294.872 154.689 296.745C151.952 298.618 149.83 301.259 148.59 304.335C147.35 307.411 147.047 310.785 147.72 314.032C148.392 317.28 150.01 320.256 152.37 322.586C154.73 324.917 157.726 326.497 160.982 327.129C164.238 327.761 167.608 327.415 170.668 326.137C173.728 324.858 176.342 322.703 178.18 319.943C180.019 317.182 181 313.94 181 310.623C181 308.397 180.558 306.193 179.7 304.139C178.842 302.085 177.584 300.222 176 298.657C174.416 297.093 172.537 295.859 170.472 295.027C168.408 294.194 166.198 293.78 163.972 293.808V293.808ZM214.63 293.808C211.313 293.85 208.084 294.872 205.347 296.745C202.61 298.618 200.487 301.259 199.247 304.335C198.007 307.411 197.705 310.785 198.377 314.032C199.05 317.28 200.668 320.256 203.028 322.586C205.388 324.917 208.384 326.497 211.64 327.129C214.895 327.761 218.265 327.415 221.326 326.137C224.386 324.858 226.999 322.703 228.838 319.943C230.676 317.182 231.657 313.94 231.657 310.623C231.658 308.397 231.216 306.193 230.357 304.139C229.499 302.085 228.241 300.222 226.657 298.657C225.073 297.093 223.195 295.859 221.13 295.027C219.065 294.194 216.856 293.78 214.63 293.808ZM62.6574 305.089C63.4019 305.061 64.1444 305.183 64.8406 305.448C65.5368 305.713 66.1723 306.116 66.7089 306.633C67.2455 307.15 67.6723 307.769 67.9636 308.455C68.255 309.141 68.4048 309.878 68.4043 310.623C68.4043 312.147 67.7988 313.609 66.7211 314.687C65.6433 315.765 64.1816 316.37 62.6574 316.37C61.9124 316.371 61.175 316.221 60.4893 315.929C59.8036 315.638 59.1838 315.211 58.6671 314.675C58.1503 314.138 57.7472 313.503 57.482 312.806C57.2167 312.11 57.0948 311.368 57.1234 310.623C57.0934 309.888 57.216 309.155 57.4835 308.47C57.751 307.785 58.1575 307.163 58.6775 306.643C59.1975 306.123 59.8196 305.717 60.5046 305.449C61.1896 305.182 61.9227 305.059 62.6574 305.089V305.089ZM113.315 305.089C114.059 305.061 114.802 305.183 115.498 305.448C116.194 305.713 116.83 306.116 117.366 306.633C117.903 307.15 118.33 307.769 118.621 308.455C118.912 309.141 119.062 309.878 119.062 310.623C119.062 312.147 118.456 313.609 117.379 314.687C116.301 315.765 114.839 316.37 113.315 316.37C112.518 316.463 111.711 316.383 110.948 316.133C110.186 315.883 109.487 315.471 108.9 314.924C108.313 314.377 107.851 313.71 107.548 312.967C107.244 312.224 107.106 311.425 107.142 310.623C107.1 309.829 107.236 309.036 107.541 308.301C107.846 307.566 108.312 306.91 108.904 306.379C109.496 305.848 110.2 305.456 110.963 305.233C111.726 305.01 112.53 304.961 113.315 305.089V305.089ZM163.972 305.089C164.717 305.061 165.459 305.183 166.155 305.448C166.852 305.713 167.487 306.116 168.024 306.633C168.56 307.15 168.987 307.769 169.278 308.455C169.57 309.141 169.72 309.878 169.719 310.623C169.719 312.147 169.114 313.609 168.036 314.687C166.958 315.765 165.496 316.37 163.972 316.37C163.227 316.371 162.49 316.221 161.804 315.929C161.118 315.638 160.499 315.211 159.982 314.675C159.465 314.138 159.062 313.503 158.797 312.806C158.532 312.11 158.41 311.368 158.438 310.623C158.408 309.888 158.531 309.155 158.798 308.47C159.066 307.785 159.472 307.163 159.992 306.643C160.512 306.123 161.134 305.717 161.82 305.449C162.505 305.182 163.238 305.059 163.972 305.089V305.089ZM214.63 305.089C215.374 305.061 216.117 305.183 216.813 305.448C217.509 305.713 218.145 306.116 218.681 306.633C219.218 307.15 219.645 307.769 219.936 308.455C220.227 309.141 220.377 309.878 220.377 310.623C220.377 312.147 219.771 313.609 218.693 314.687C217.616 315.765 216.154 316.37 214.63 316.37C213.885 316.371 213.147 316.221 212.462 315.929C211.776 315.638 211.156 315.211 210.639 314.675C210.123 314.138 209.72 313.503 209.454 312.806C209.189 312.11 209.067 311.368 209.096 310.623C209.066 309.888 209.188 309.155 209.456 308.47C209.723 307.785 210.13 307.163 210.65 306.643C211.17 306.123 211.792 305.717 212.477 305.449C213.162 305.182 213.895 305.059 214.63 305.089Z" fill="#F0F0F3"/>
</g>
<defs>
<filter id="filter0_dd" x="0" y="0" width="365" height="365" filterUnits="userSpaceOnUse" color-interpolation-filters="sRGB">
<feFlood flood-opacity="0" result="BackgroundImageFix"/>
<feColorMatrix in="SourceAlpha" type="matrix" values="0 0 0 0 0 0 0 0 0 0 0 0 0 0 0 0 0 0 127 0"/>
<feMorphology radius="1" operator="dilate" in="SourceAlpha" result="effect1_dropShadow"/>
<feOffset dx="3" dy="3"/>
<feGaussianBlur stdDeviation="5.5"/>
<feColorMatrix type="matrix" values="0 0 0 0 0.682353 0 0 0 0 0.682353 0 0 0 0 0.752941 0 0 0 0.4 0"/>
<feBlend mode="normal" in2="BackgroundImageFix" result="effect1_dropShadow"/>
<feColorMatrix in="SourceAlpha" type="matrix" values="0 0 0 0 0 0 0 0 0 0 0 0 0 0 0 0 0 0 127 0"/>
<feMorphology radius="1" operator="dilate" in="SourceAlpha" result="effect2_dropShadow"/>
<feOffset dx="-3" dy="-3"/>
<feGaussianBlur stdDeviation="4"/>
<feColorMatrix type="matrix" values="0 0 0 0 1 0 0 0 0 1 0 0 0 0 1 0 0 0 1 0"/>
<feBlend mode="normal" in2="effect1_dropShadow" result="effect2_dropShadow"/>
<feBlend mode="normal" in="SourceGraphic" in2="effect2_dropShadow" result="shape"/>
</filter>
<clipPath id="clip0">
<rect width="338" height="338" fill="white" transform="translate(12 12)"/>
</clipPath>
</defs>
</svg>
